<?xml version="1.0" standalone="no"?>
<!DOCTYPE svg PUBLIC "-//W3C//DTD SVG 20010904//EN"
 "http://www.w3.org/TR/2001/REC-SVG-20010904/DTD/svg10.dtd">
<svg version="1.0" xmlns="http://www.w3.org/2000/svg"
 width="2490.000000pt" height="2490.000000pt" viewBox="0 0 2490.000000 2490.000000"
 preserveAspectRatio="xMidYMid meet">
<metadata>
Created by potrace 1.11, written by Peter Selinger 2001-2013
</metadata>
<g transform="translate(0.000000,2490.000000) scale(0.100000,-0.100000)"
fill="#000000" stroke="none">
<path d="M11890 22920 c-462 -26 -1111 -104 -1455 -175 -38 -8 -115 -24 -170
-35 -55 -12 -131 -28 -170 -37 -199 -45 -850 -225 -884 -244 -9 -4 -54 -20
-101 -34 -47 -14 -94 -29 -105 -34 -11 -5 -51 -19 -90 -32 -38 -12 -74 -25
-80 -29 -5 -4 -37 -16 -70 -26 -33 -10 -71 -24 -85 -31 -14 -7 -29 -13 -33
-13 -4 0 -27 -9 -50 -19 -24 -11 -62 -26 -85 -33 -23 -7 -42 -16 -42 -20 0 -5
-6 -8 -14 -8 -7 0 -40 -12 -72 -26 -33 -14 -72 -32 -89 -39 -16 -7 -50 -22
-75 -33 -25 -11 -58 -24 -73 -27 -15 -4 -27 -11 -27 -16 0 -5 -5 -9 -12 -9
-19 0 -568 -267 -578 -281 -3 -4 -18 -11 -33 -14 -15 -4 -27 -10 -27 -14 0 -3
-25 -17 -55 -31 -30 -14 -55 -28 -55 -32 0 -5 -4 -8 -10 -8 -5 0 -49 -24 -98
-54 -49 -29 -99 -57 -110 -60 -12 -4 -22 -11 -22 -16 0 -4 -11 -11 -25 -14
-14 -4 -25 -11 -25 -16 0 -6 -5 -10 -11 -10 -11 0 -160 -89 -169 -101 -3 -3
-15 -9 -27 -13 -13 -4 -23 -11 -23 -16 0 -4 -11 -11 -25 -14 -14 -4 -25 -11
-25 -16 0 -6 -7 -10 -15 -10 -8 0 -15 -3 -15 -8 0 -4 -20 -18 -45 -32 -25 -14
-45 -28 -45 -32 0 -5 -6 -8 -14 -8 -8 0 -21 -6 -29 -14 -7 -8 -45 -35 -83 -60
-38 -25 -74 -50 -81 -56 -7 -5 -17 -10 -23 -10 -5 0 -10 -4 -10 -8 0 -4 -18
-19 -40 -32 -22 -14 -40 -28 -40 -32 0 -5 -6 -8 -13 -8 -8 0 -22 -9 -32 -20
-10 -11 -38 -31 -61 -45 -24 -14 -44 -30 -44 -35 0 -6 -5 -10 -11 -10 -6 0
-26 -12 -44 -27 -17 -16 -42 -35 -54 -43 -13 -8 -33 -23 -44 -32 -25 -20 -26
-21 -87 -68 -25 -19 -50 -39 -57 -45 -6 -5 -31 -26 -54 -45 -23 -19 -51 -43
-61 -52 -10 -10 -21 -18 -26 -18 -4 0 -15 -8 -24 -17 -9 -10 -23 -23 -30 -28
-24 -19 -163 -138 -190 -164 -15 -14 -44 -39 -64 -56 -44 -37 -139 -125 -243
-225 -43 -41 -99 -94 -125 -118 -25 -23 -46 -47 -46 -53 0 -5 -7 -12 -16 -16
-9 -3 -35 -26 -58 -51 -22 -25 -75 -80 -116 -123 -100 -104 -188 -199 -225
-243 -16 -20 -42 -49 -56 -64 -26 -27 -145 -166 -164 -190 -5 -7 -18 -21 -27
-30 -10 -9 -18 -20 -18 -24 0 -5 -8 -16 -17 -27 -10 -10 -34 -37 -53 -61 -19
-23 -40 -47 -45 -54 -6 -6 -26 -31 -45 -56 -47 -61 -48 -62 -68 -87 -9 -11
-24 -31 -32 -44 -8 -12 -27 -37 -42 -54 -16 -18 -28 -38 -28 -44 0 -6 -4 -11
-10 -11 -5 0 -21 -20 -35 -44 -14 -23 -34 -51 -45 -61 -11 -10 -20 -24 -20
-32 0 -7 -3 -13 -7 -13 -5 0 -19 -18 -33 -40 -13 -22 -28 -40 -32 -40 -4 0 -8
-5 -8 -10 0 -6 -5 -16 -10 -23 -6 -7 -31 -43 -56 -81 -25 -38 -52 -76 -60 -83
-8 -8 -14 -21 -14 -29 0 -8 -3 -14 -8 -14 -4 0 -18 -20 -32 -45 -14 -25 -28
-45 -32 -45 -5 0 -8 -5 -8 -11 0 -14 -71 -133 -82 -137 -4 -2 -8 -10 -8 -18 0
-8 -4 -14 -9 -14 -5 0 -11 -8 -15 -17 -3 -10 -10 -25 -15 -33 -39 -61 -111
-190 -111 -199 0 -6 -4 -11 -10 -11 -5 0 -10 -6 -10 -14 0 -8 -4 -16 -9 -18
-4 -1 -24 -32 -43 -68 -20 -36 -50 -92 -68 -125 -18 -33 -59 -109 -90 -170
-32 -60 -65 -123 -74 -140 -9 -16 -16 -36 -16 -42 0 -7 -4 -13 -10 -13 -5 0
-10 -5 -10 -12 0 -7 -22 -57 -49 -113 -44 -91 -68 -142 -121 -260 -9 -22 -27
-61 -39 -87 -11 -26 -21 -52 -21 -57 0 -6 -11 -30 -24 -56 -14 -25 -30 -62
-37 -83 -6 -20 -15 -41 -19 -47 -3 -5 -15 -32 -24 -60 -10 -27 -24 -64 -32
-82 -8 -17 -14 -35 -14 -40 0 -4 -6 -20 -14 -34 -7 -15 -24 -58 -36 -95 -12
-38 -28 -82 -35 -99 -7 -16 -16 -41 -20 -55 -4 -14 -13 -38 -20 -55 -7 -16
-27 -77 -44 -135 -18 -58 -36 -114 -41 -125 -26 -54 -194 -690 -244 -920 -159
-733 -236 -1467 -236 -2245 0 -778 77 -1512 236 -2245 50 -230 218 -866 244
-920 5 -11 23 -67 41 -125 17 -58 37 -118 44 -135 7 -16 16 -41 20 -55 4 -14
13 -38 20 -55 7 -16 23 -61 35 -99 12 -37 29 -80 36 -95 8 -14 14 -30 14 -34
0 -5 6 -23 14 -40 8 -18 22 -54 32 -82 9 -27 21 -54 24 -60 4 -5 13 -27 19
-47 7 -21 23 -58 37 -83 13 -26 24 -50 24 -56 0 -5 10 -31 21 -57 12 -26 33
-72 46 -102 53 -119 67 -149 114 -245 27 -56 49 -106 49 -113 0 -7 5 -12 10
-12 6 0 10 -6 10 -12 0 -7 7 -26 16 -43 9 -16 42 -79 74 -140 31 -60 72 -137
90 -170 18 -33 48 -89 68 -125 19 -36 39 -66 43 -68 5 -2 9 -10 9 -18 0 -8 5
-14 10 -14 6 0 10 -5 10 -11 0 -9 72 -138 111 -199 5 -8 12 -23 15 -33 4 -9
10 -17 15 -17 5 0 9 -6 9 -14 0 -8 4 -16 8 -18 5 -1 32 -43 62 -93 30 -49 57
-91 62 -93 4 -2 8 -8 8 -13 0 -6 5 -15 10 -22 6 -7 31 -43 57 -82 25 -38 50
-71 54 -73 5 -2 9 -8 9 -12 0 -5 14 -28 30 -52 39 -55 120 -168 143 -199 9
-13 38 -53 64 -89 27 -36 56 -74 65 -84 10 -11 30 -38 45 -60 15 -23 35 -50
45 -61 30 -33 58 -68 91 -112 17 -24 34 -43 39 -43 4 0 8 -6 8 -14 0 -8 4 -16
9 -18 5 -1 35 -34 66 -73 132 -164 419 -477 626 -684 207 -207 520 -494 684
-626 39 -31 72 -61 73 -66 2 -5 10 -9 18 -9 8 0 14 -4 14 -8 0 -4 24 -25 53
-47 61 -46 71 -54 100 -80 12 -11 40 -32 63 -48 22 -15 49 -35 60 -45 10 -9
48 -38 84 -64 36 -26 70 -51 75 -55 6 -5 33 -24 60 -43 28 -19 52 -37 55 -40
3 -3 16 -13 30 -22 14 -10 44 -31 68 -48 23 -16 47 -30 52 -30 4 0 10 -4 12
-9 1 -4 35 -29 73 -54 39 -26 75 -51 82 -57 7 -5 16 -10 22 -10 5 0 11 -4 13
-8 1 -5 44 -32 93 -62 50 -30 92 -57 93 -62 2 -4 10 -8 18 -8 8 0 14 -4 14 -9
0 -5 8 -11 18 -15 9 -3 24 -10 32 -15 61 -39 190 -111 199 -111 6 0 11 -4 11
-10 0 -5 6 -10 14 -10 8 0 16 -4 18 -9 2 -4 32 -24 68 -43 36 -20 92 -50 125
-68 33 -18 110 -59 170 -90 61 -32 124 -65 140 -74 17 -9 36 -16 43 -16 6 0
12 -4 12 -10 0 -5 5 -10 12 -10 7 0 57 -22 113 -49 91 -44 142 -68 260 -121
22 -9 61 -27 87 -39 26 -11 52 -21 57 -21 6 0 30 -11 56 -24 25 -14 62 -30 83
-37 20 -6 42 -15 47 -19 6 -3 33 -15 60 -24 28 -10 64 -24 82 -32 17 -8 35
-14 40 -14 4 0 20 -6 34 -14 15 -7 58 -24 95 -36 38 -12 83 -28 99 -35 17 -7
41 -16 55 -20 14 -4 39 -13 55 -20 17 -7 77 -27 135 -44 58 -18 114 -36 125
-41 54 -26 690 -194 920 -244 733 -159 1467 -236 2245 -236 778 0 1512 77
2245 236 230 50 866 218 920 244 11 5 67 23 125 41 58 17 119 37 135 44 17 7
41 16 55 20 14 4 39 13 55 20 17 7 61 23 99 35 37 12 80 29 95 36 14 8 30 14
34 14 5 0 23 6 40 14 18 8 55 22 82 32 28 9 55 21 60 24 6 4 27 13 47 19 21 7
58 23 83 37 26 13 50 24 56 24 5 0 31 10 57 21 26 12 72 33 102 46 119 53 149
67 245 114 56 27 106 49 113 49 7 0 12 5 12 10 0 6 6 10 13 10 6 0 26 7 42 16
17 9 80 42 140 74 61 31 137 72 170 90 33 18 89 48 125 68 36 19 67 39 68 43
2 5 10 9 18 9 8 0 14 5 14 10 0 6 5 10 11 10 9 0 138 72 199 111 8 5 23 12 33
15 9 4 17 10 17 15 0 5 6 9 14 9 8 0 16 4 18 8 2 5 44 32 93 62 50 30 92 57
93 62 2 4 8 8 13 8 6 0 15 5 22 10 7 6 44 31 82 57 39 25 72 50 73 54 2 5 8 9
12 9 5 0 29 14 52 30 24 17 54 38 68 48 14 9 27 19 30 22 3 3 28 21 55 40 28
19 55 38 60 43 6 4 39 29 75 55 36 26 74 55 85 65 11 10 45 35 75 55 30 20 68
49 85 65 16 16 49 43 72 60 24 17 43 34 43 39 0 4 6 8 14 8 8 0 16 4 18 9 2 5
44 42 94 83 357 288 970 901 1286 1288 29 36 63 76 75 90 11 14 44 54 72 90
28 36 59 74 69 85 11 11 37 45 58 75 21 30 46 63 55 73 9 10 34 43 55 75 21
31 41 59 44 62 3 3 22 28 41 55 18 28 36 52 39 55 3 3 13 16 22 30 10 14 31
44 48 68 16 23 30 47 30 52 0 4 4 10 9 12 4 2 29 35 54 73 26 39 51 75 56 82
6 6 29 42 52 80 23 37 45 70 50 73 4 3 13 17 18 30 11 25 32 61 41 70 8 8 28
42 55 93 14 26 55 95 91 153 36 59 86 146 111 193 25 47 68 129 95 181 97 184
108 205 108 218 0 6 5 12 10 12 6 0 10 5 10 11 0 6 32 75 70 154 39 79 70 146
70 150 0 3 11 30 24 58 53 117 67 150 83 190 9 23 19 47 23 52 4 6 13 28 20
50 7 22 16 45 21 50 9 12 78 194 116 305 14 41 31 89 38 105 7 17 16 41 20 55
4 14 11 30 15 35 4 6 24 66 44 135 20 69 41 134 47 146 30 59 213 756 253 959
8 44 23 114 32 155 21 97 31 152 49 275 8 55 25 170 39 255 70 445 106 964
106 1520 0 595 -43 1155 -130 1685 -42 259 -50 302 -75 420 -14 66 -30 145
-35 175 -6 30 -24 107 -40 170 -17 63 -44 169 -61 235 -16 66 -38 147 -49 180
-10 33 -37 127 -60 209 -23 82 -46 156 -50 165 -5 9 -21 54 -35 101 -14 47
-29 94 -34 105 -5 11 -19 52 -32 90 -12 39 -25 75 -29 80 -4 6 -15 37 -25 70
-10 33 -24 69 -32 80 -7 11 -13 25 -13 33 0 7 -9 32 -19 55 -11 24 -26 62 -33
85 -7 23 -16 42 -20 42 -5 0 -8 8 -8 18 0 10 -6 26 -14 37 -7 11 -19 37 -25
57 -7 20 -25 64 -42 98 -16 33 -35 78 -41 100 -7 22 -16 40 -20 40 -5 0 -8 6
-8 12 0 14 -25 66 -174 368 -55 113 -104 207 -107 210 -4 3 -11 18 -14 33 -4
15 -10 27 -14 27 -3 0 -17 25 -31 55 -14 30 -28 55 -32 55 -5 0 -8 4 -8 10 0
5 -24 49 -54 98 -29 49 -57 99 -60 110 -4 12 -11 22 -16 22 -4 0 -11 11 -14
25 -4 14 -11 25 -16 25 -6 0 -10 5 -10 11 0 11 -89 160 -101 169 -3 3 -9 15
-13 28 -4 12 -11 22 -16 22 -4 0 -11 11 -14 25 -4 14 -11 25 -16 25 -6 0 -10
7 -10 15 0 8 -3 15 -8 15 -4 0 -18 20 -32 45 -14 25 -28 45 -31 45 -4 0 -9 8
-13 18 -5 16 -102 161 -126 189 -5 7 -10 17 -10 23 0 5 -4 10 -8 10 -4 0 -19
18 -32 40 -14 22 -28 40 -32 40 -5 0 -8 6 -8 13 0 8 -9 22 -20 32 -11 10 -31
38 -45 61 -14 24 -30 44 -35 44 -6 0 -10 5 -10 11 0 6 -12 26 -27 44 -16 17
-35 42 -43 54 -8 13 -23 33 -32 44 -20 25 -21 26 -68 87 -19 25 -39 50 -45 56
-5 7 -26 31 -45 54 -19 24 -43 51 -52 61 -10 11 -18 22 -18 27 0 4 -8 15 -17
24 -10 9 -23 23 -28 30 -19 24 -138 163 -164 190 -14 15 -39 44 -56 64 -37 44
-125 139 -225 243 -41 43 -94 99 -118 125 -23 25 -47 46 -53 46 -5 0 -12 7
-16 16 -3 9 -26 35 -51 58 -25 22 -80 75 -123 116 -104 100 -199 188 -243 225
-20 17 -49 42 -64 56 -27 26 -166 145 -190 164 -7 5 -21 18 -30 28 -9 9 -20
17 -24 17 -5 0 -16 8 -27 18 -10 9 -37 33 -61 52 -23 19 -47 40 -54 45 -6 6
-31 26 -56 45 -61 47 -62 48 -87 68 -11 9 -31 24 -44 32 -12 8 -37 27 -54 43
-18 15 -38 27 -44 27 -6 0 -11 4 -11 10 0 5 -20 21 -44 35 -23 14 -51 34 -61
45 -10 11 -24 20 -32 20 -7 0 -13 3 -13 8 0 4 -18 18 -40 32 -22 13 -40 28
-40 32 0 4 -5 8 -10 8 -6 0 -16 5 -23 10 -7 6 -43 31 -81 56 -38 25 -76 52
-83 60 -8 8 -21 14 -29 14 -8 0 -14 3 -14 8 0 4 -20 18 -45 32 -25 14 -45 28
-45 32 0 5 -7 8 -15 8 -8 0 -15 4 -15 10 0 5 -11 12 -25 16 -14 3 -25 10 -25
14 0 5 -16 14 -35 20 -19 6 -35 16 -35 21 0 5 -7 9 -15 9 -8 0 -15 4 -15 9 0
5 -8 11 -17 15 -10 3 -25 10 -33 15 -61 39 -190 111 -199 111 -6 0 -11 5 -11
10 0 6 -6 10 -14 10 -8 0 -16 4 -18 9 -1 4 -32 24 -68 43 -36 20 -92 50 -125
68 -33 18 -109 59 -170 90 -60 32 -123 65 -140 74 -16 9 -36 16 -42 16 -7 0
-13 5 -13 10 0 6 -5 10 -12 10 -7 0 -57 22 -113 49 -91 44 -142 68 -260 121
-22 9 -61 27 -87 39 -26 11 -52 21 -57 21 -6 0 -30 11 -56 24 -25 14 -62 30
-83 37 -20 6 -41 15 -47 19 -5 3 -32 15 -60 24 -27 10 -63 24 -80 31 -16 7
-41 16 -55 20 -14 4 -29 11 -35 15 -5 4 -41 17 -80 30 -38 12 -83 28 -100 35
-16 7 -41 16 -55 20 -14 4 -38 13 -55 20 -16 7 -77 27 -135 44 -58 18 -114 36
-125 41 -71 33 -762 216 -980 260 -60 12 -139 28 -175 36 -117 25 -491 83
-700 109 -458 57 -628 67 -1190 70 -289 2 -595 -1 -680 -5z m-5809 -5195 c492
-462 925 -867 962 -900 38 -33 284 -258 547 -500 263 -242 518 -476 566 -520
85 -76 1623 -1501 4737 -4387 l1432 -1327 5 588 5 588 743 -690 742 -690 0
-1589 c0 -897 -4 -1588 -9 -1586 -4 2 -473 440 -1040 973 -568 534 -1040 973
-1049 977 -9 4 -1601 1474 -3537 3267 l-3520 3260 -3 -4250 -2 -4249 -745 0
-745 0 0 5941 c0 3411 4 5939 9 5937 5 -1 411 -381 902 -843z m9739 -2255 l0
-3100 -277 243 c-153 133 -488 426 -745 650 l-468 408 0 2450 0 2449 745 0
745 0 0 -3100z m-6004 2181 c495 -465 922 -864 949 -889 28 -24 1679 -1551
3670 -3392 l3620 -3349 3 4240 2 4239 745 0 745 0 0 -5931 c0 -3357 -4 -5929
-9 -5927 -4 2 -473 440 -1040 973 -568 534 -1040 973 -1049 977 -9 4 -1601
1474 -3537 3267 l-3520 3260 -3 -545 c-1 -299 -5 -544 -7 -544 -3 0 -338 290
-745 646 l-740 645 0 1590 c0 910 4 1589 9 1587 5 -1 413 -383 907 -847z
m-118 -5470 l692 -643 0 -2459 0 -2459 -745 0 -745 0 0 3151 0 3152 53 -49
c28 -27 364 -339 745 -693z"/>
</g>
</svg>
